<?xml version="1.0" standalone="no"?>
<!DOCTYPE svg PUBLIC "-//W3C//DTD SVG 20010904//EN"
 "http://www.w3.org/TR/2001/REC-SVG-20010904/DTD/svg10.dtd">
<svg version="1.0" xmlns="http://www.w3.org/2000/svg"
 width="360.000000pt" height="360.000000pt" viewBox="0 0 360.000000 360.000000"
 preserveAspectRatio="xMidYMid meet">
<metadata>
Created by potrace 1.11, written by Peter Selinger 2001-2013
</metadata>
<g transform="translate(0.000000,360.000000) scale(0.100000,-0.100000)"
fill="#000000" stroke="none">
<path d="M3052 3378 c-258 -44 -473 -133 -694 -288 -111 -77 -303 -264 -383
-372 -39 -53 -64 -78 -79 -79 -178 -7 -525 -197 -751 -412 l-40 -38 50 8 c62
10 215 9 275 -1 25 -4 54 -9 65 -10 25 -4 108 -27 117 -32 4 -3 -2 -23 -12
-47 -24 -55 -66 -200 -74 -257 -3 -25 -9 -58 -12 -75 -4 -26 1 -36 36 -70 34
-33 43 -37 50 -24 44 77 324 415 420 506 92 87 205 138 268 121 19 -5 33 -15
34 -26 11 -126 -60 -233 -276 -418 -133 -115 -139 -120 -196 -164 -25 -19 -54
-43 -64 -52 -11 -10 -28 -20 -38 -24 -10 -3 -18 -9 -18 -13 0 -4 -12 -13 -27
-20 l-26 -12 39 -40 c38 -40 40 -41 94 -35 107 11 191 33 288 73 34 14 65 24
67 21 4 -3 23 -74 42 -150 10 -43 12 -273 3 -313 -5 -22 -7 -41 -5 -43 6 -7
175 203 236 293 109 162 209 395 209 487 0 30 2 32 99 104 89 66 244 223 319
322 153 204 258 433 306 662 8 41 18 89 21 105 3 17 9 99 12 183 l6 153 -127
-2 c-70 -2 -175 -11 -234 -21z m-235 -358 c79 -27 153 -90 193 -166 29 -58 35
-88 34 -170 -4 -181 -158 -323 -343 -316 -122 4 -235 82 -292 201 -34 70 -33
196 2 272 28 60 92 130 142 155 79 41 182 50 264 24z"/>
<path d="M2625 2945 c-120 -45 -196 -187 -165 -308 42 -160 217 -245 364 -176
193 90 204 357 19 465 -53 32 -159 41 -218 19z"/>
<path d="M1757 3064 c-1 -1 -38 -5 -81 -8 -43 -4 -82 -8 -85 -11 -4 -2 -27 -6
-51 -10 -103 -15 -279 -82 -400 -152 -178 -103 -349 -275 -461 -463 -65 -110
-127 -275 -154 -410 -25 -124 -26 -377 -1 -490 25 -119 58 -221 69 -217 6 2
33 29 60 60 l49 56 -16 68 c-26 109 -27 122 -31 248 -12 442 236 857 631 1054
107 53 229 93 329 106 22 4 49 8 60 10 11 2 37 4 57 4 35 1 40 6 83 72 25 39
44 73 42 76 -4 4 -96 10 -100 7z"/>
<path d="M2205 2270 c-16 -4 -41 -12 -55 -20 -59 -30 -175 -137 -255 -236 -22
-26 -63 -75 -90 -108 -100 -121 -275 -367 -275 -388 0 -10 215 139 315 219
118 94 115 92 180 146 168 142 278 292 258 353 -11 32 -36 43 -78 34z"/>
<path d="M3019 1765 c-64 -42 -66 -44 -67 -88 -5 -123 -58 -321 -120 -442 -58
-116 -155 -242 -256 -334 -169 -156 -411 -265 -641 -289 -141 -15 -331 0 -427
34 -37 13 -37 13 -97 -39 -51 -44 -75 -77 -56 -77 3 0 44 -11 92 -25 131 -38
252 -53 393 -50 69 2 139 6 155 10 17 3 53 10 82 16 381 76 729 350 900 709
41 84 88 221 98 283 3 17 8 39 10 47 19 66 27 290 11 289 -6 0 -41 -20 -77
-44z"/>
<path d="M1455 1667 c-81 -93 -160 -183 -164 -187 -3 -3 -49 -54 -101 -115
-52 -60 -102 -117 -110 -125 -16 -18 -86 -97 -219 -250 -46 -52 -97 -111 -115
-130 -17 -19 -49 -55 -70 -80 -74 -86 -151 -173 -167 -189 -8 -9 -44 -50 -80
-91 -63 -73 -92 -106 -182 -205 -25 -27 -44 -51 -42 -53 3 -3 105 101 200 203
20 22 116 123 214 223 253 263 295 308 496 517 226 236 293 306 361 375 l54
56 -32 31 c-24 23 -36 28 -43 20z"/>
<path d="M1459 1367 c-86 -84 -264 -255 -395 -382 -131 -126 -257 -248 -280
-270 -162 -158 -466 -448 -496 -476 -21 -18 -38 -36 -38 -41 0 -9 26 14 134
113 34 31 79 71 101 90 22 19 45 39 51 44 6 6 39 35 74 65 35 30 71 62 79 71
9 8 72 64 141 124 69 60 148 129 175 154 62 56 164 147 295 261 35 30 73 64
85 75 11 11 52 47 90 80 39 33 88 76 110 96 22 20 54 48 70 62 l30 25 -29 31
c-17 17 -32 31 -35 31 -3 0 -76 -69 -162 -153z"/>
</g>
</svg>
